HIERARCHY
ROOT hip
{
	OFFSET 0.000000 0.000000 0.000000
	CHANNELS 6 Xposition Yposition Zposition Zrotation Yrotation Xrotation 
	JOINT lhipjoint
	{
		OFFSET 0.000000 0.000000 0.000000
		CHANNELS 3 Zrotation Yrotation Xrotation
		JOINT lfemur
		{
			OFFSET 1.363060 -1.794630 0.839290
			CHANNELS 3 Zrotation Yrotation Xrotation
			JOINT ltibia
			{
				OFFSET 2.448110 -6.726130 0.000000
				CHANNELS 3 Zrotation Yrotation Xrotation
				JOINT lfoot
				{
					OFFSET 2.562200 -7.039590 0.000000
					CHANNELS 3 Zrotation Yrotation Xrotation
					JOINT ltoes
					{
						OFFSET 0.157640 -0.433110 2.322550
						CHANNELS 3 Zrotation Yrotation Xrotation
						End Site
						{
							OFFSET 0.000000 0.000000 0.000000
						}
					}
				}
			}
		}
	}
	JOINT rhipjoint
	{
		OFFSET 0.000000 0.000000 0.000000
		CHANNELS 3 Zrotation Yrotation Xrotation
		JOINT rfemur
		{
			OFFSET -1.305520 -1.794630 0.839290
			CHANNELS 3 Zrotation Yrotation Xrotation
			JOINT rtibia
			{
				OFFSET -2.542530 -6.985550 0.000000
				CHANNELS 3 Zrotation Yrotation Xrotation
				JOINT rfoot
				{
					OFFSET -2.568260 -7.056230 0.000000
					CHANNELS 3 Zrotation Yrotation Xrotation
					JOINT rtoes
					{
						OFFSET -0.164730 -0.452590 2.363150
						CHANNELS 3 Zrotation Yrotation Xrotation
						End Site
						{
							OFFSET 0.000000 0.000000 0.000000
						}
					}
				}
			}
		}
	}
	JOINT lowerback
	{
		OFFSET 0.000000 0.000000 0.000000
		CHANNELS 3 Zrotation Yrotation Xrotation
		JOINT upperback
		{
			OFFSET 0.028270 2.035590 -0.193380
			CHANNELS 3 Zrotation Yrotation Xrotation
			JOINT thorax
			{
				OFFSET 0.056720 2.048850 -0.042750
				CHANNELS 3 Zrotation Yrotation Xrotation
				JOINT lowerneck
				{
					OFFSET 0.000000 0.000000 0.000000
					CHANNELS 3 Zrotation Yrotation Xrotation
					JOINT upperneck
					{
						OFFSET -0.054170 1.746240 0.172020
						CHANNELS 3 Zrotation Yrotation Xrotation
						JOINT head
						{
							OFFSET 0.104070 1.761360 -0.123970
							CHANNELS 3 Zrotation Yrotation Xrotation
							End Site
							{
								OFFSET 0.000000 0.000000 0.000000
							}
						}
					}
				}
				JOINT lclavicle
				{
					OFFSET 0.000000 0.000000 0.000000
					CHANNELS 3 Zrotation Yrotation Xrotation
					JOINT lhumerus
					{
						OFFSET 3.362410 1.200890 -0.311210
						CHANNELS 3 Zrotation Yrotation Xrotation
						JOINT lradius
						{
							OFFSET 4.983000 -0.000000 -0.000000
							CHANNELS 3 Zrotation Yrotation Xrotation
							JOINT lwrist
							{
								OFFSET 3.483560 -0.000000 -0.000000
								CHANNELS 3 Zrotation Yrotation Xrotation
								JOINT lhand
								{
									OFFSET 0.000000 0.000000 0.000000
									CHANNELS 3 Zrotation Yrotation Xrotation
									JOINT lfingers
									{
										OFFSET 0.715260 -0.000000 -0.000000
										CHANNELS 3 Zrotation Yrotation Xrotation
										End Site
										{
											OFFSET 0.000000 0.000000 0.000000
										}
									}
								}
								JOINT lthumb
								{
									OFFSET 0.000000 0.000000 0.000000
									CHANNELS 3 Zrotation Yrotation Xrotation
									End Site
									{
										OFFSET 0.000000 0.000000 0.000000
									}
								}
							}
						}
					}
				}
				JOINT rclavicle
				{
					OFFSET 0.000000 0.000000 0.000000
					CHANNELS 3 Zrotation Yrotation Xrotation
					JOINT rhumerus
					{
						OFFSET -3.136600 1.374050 -0.404650
						CHANNELS 3 Zrotation Yrotation Xrotation
						JOINT rradius
						{
							OFFSET -5.241900 -0.000000 -0.000000
							CHANNELS 3 Zrotation Yrotation Xrotation
							JOINT rwrist
							{
								OFFSET -3.444170 -0.000000 -0.000000
								CHANNELS 3 Zrotation Yrotation Xrotation
								JOINT rhand
								{
									OFFSET 0.000000 0.000000 0.000000
									CHANNELS 3 Zrotation Yrotation Xrotation
									JOINT rfingers
									{
										OFFSET -0.622530 -0.000000 -0.000000
										CHANNELS 3 Zrotation Yrotation Xrotation
										End Site
										{
											OFFSET 0.000000 0.000000 0.000000
										}
									}
								}
								JOINT rthumb
								{
									OFFSET 0.000000 0.000000 0.000000
									CHANNELS 3 Zrotation Yrotation Xrotation
									End Site
									{
										OFFSET 0.000000 0.000000 0.000000
									}
								}
							}
						}
					}
				}
			}
		}
	}
}
MOTION
Frames: 4
Frame Time: 0.008333
0.553634 19.566730 4.786702 -154.799314 -39.753760 156.943003 7.464302 4.912784 1.190515 -5.631078 -23.186714 -9.046398 1.183300 9.510286 33.819796 6.242693 -16.988508 25.613331 0.427000 4.193600 11.621900 -9.923937 -3.796752 -1.825380 9.085449 14.386143 -95.009300 -32.229154 -20.134607 131.243716 -4.082383 20.544782 18.893895 -1.253000 7.096500 -20.001700 1.478432 1.965686 42.402388 1.425705 -2.367366 3.761612 2.480514 -4.618754 14.055882 -6.218694 -10.313824 -6.881306 19.806673 -17.656997 -3.898869 9.822400 -8.748800 0.514000 -0.034414 0.509506 5.801697 164.609861 -72.375021 148.094929 67.628816 -60.718897 -37.883745 1.049127 2.150380 1.625699 42.333101 -10.556962 -11.848400 -7.125000 0.000000 0.000000 9.329300 12.079000 -7.269900 -1.203965 -0.276774 4.186878 80.098993 -14.056842 18.892858 -6.350968 27.551114 -1.847816 -0.100489 -0.535979 23.000458 -3.166360 12.723174 -0.753900 7.125000 0.000000 0.000000 16.456600 -17.019100 11.402600 
0.544090 19.560778 4.787523 -154.936696 -39.732788 156.922964 7.461333 4.920175 1.186209 -5.799926 -23.096093 -8.937519 1.202889 9.525167 33.913288 6.242227 -17.050681 25.535694 0.427700 4.197200 11.632100 -9.937923 -3.785604 -1.849143 9.224162 14.127685 -94.939310 -32.296063 -20.076068 131.500914 -4.086616 20.750107 18.803800 -1.338300 7.325000 -20.681800 1.414351 1.969533 42.313032 1.427005 -2.417042 3.786269 2.454641 -4.668972 14.254268 -6.068016 -10.285850 -7.187753 19.746384 -17.622664 -3.741791 9.694000 -8.726500 0.625900 -0.041488 0.547172 5.816077 164.755077 -72.460280 147.920118 67.788330 -60.737735 -38.015962 1.048458 2.149032 1.705965 42.409291 -10.448398 -11.793000 -7.125000 0.000000 0.000000 9.401000 12.195600 -7.304300 -1.186819 -0.332250 4.159857 80.151857 -13.675665 18.653188 -6.242566 27.444320 -1.830962 -0.099258 -0.521183 23.099275 -3.066626 12.886441 -0.738100 7.125000 0.000000 0.000000 16.514100 -16.879500 11.499000 
0.532494 19.556879 4.787626 -155.091955 -39.689270 156.893066 7.457185 4.932464 1.183411 -5.992547 -23.005232 -8.754245 1.213643 9.520099 33.957953 6.233059 -17.052277 25.517338 0.445100 4.280700 11.867700 -9.949053 -3.772932 -1.872523 9.365453 13.901660 -94.807347 -32.360112 -20.018750 131.735758 -4.093149 20.937056 18.608603 -1.479800 7.686200 -21.765100 1.321490 1.967585 42.195362 1.428646 -2.488090 3.817746 2.453332 -4.739483 14.474880 -5.977555 -10.216758 -7.476396 19.743759 -17.546800 -3.622676 9.617200 -8.686800 0.721800 -0.062623 0.585460 5.832051 164.760434 -72.631013 147.866444 67.813085 -60.737443 -38.059613 1.052712 2.137885 1.775131 42.509692 -10.429265 -11.810300 -7.125000 0.000000 0.000000 9.469400 12.207000 -7.356600 -1.163073 -0.396986 4.136538 80.116301 -13.288390 18.559749 -6.129902 27.333115 -1.812908 -0.101704 -0.499688 23.083139 -2.965679 13.139506 -0.724300 7.125000 0.000000 0.000000 16.570600 -16.658500 11.625600 
0.518743 19.554621 4.786395 -155.248877 -39.624424 156.882851 7.452084 4.945132 1.181114 -6.177072 -22.903625 -8.551835 1.218444 9.502386 33.960827 6.219597 -17.016936 25.473519 0.457600 4.339300 12.033400 -9.958499 -3.761342 -1.893352 9.512086 13.694987 -94.634779 -32.414569 -19.966962 131.938498 -4.095102 21.031694 18.455951 -1.645000 8.083800 -22.969000 1.218333 1.959521 42.012287 1.428470 -2.566610 3.846960 2.434304 -4.804188 14.693005 -5.867134 -10.111951 -7.734262 19.749379 -17.426796 -3.508598 9.549000 -8.631300 0.791800 -0.080156 0.621506 5.856040 164.783798 -72.882723 147.825319 67.726287 -60.731124 -38.025938 1.057852 2.122236 1.795471 42.711140 -10.431730 -11.884600 -7.125000 0.000000 0.000000 9.597200 12.169000 -7.466600 -1.144277 -0.459975 4.114929 80.116641 -12.924623 18.413713 -6.015425 27.223855 -1.794137 -0.099183 -0.480180 23.221814 -2.844567 13.333342 -0.703400 7.125000 0.000000 0.000000 16.640500 -16.495300 11.741300 
